<?xml version="1.0" encoding="UTF-8"?>
<svg width="24px" height="24px" viewBox="0 0 24 24" version="1.1" xmlns="http://www.w3.org/2000/svg" xmlns:xlink="http://www.w3.org/1999/xlink">
    <!-- Generator: Sketch 42 (36781) - http://www.bohemiancoding.com/sketch -->
    <title>Logout</title>
    <desc>Created with Sketch.</desc>
    <defs></defs>
    <g id="Symbols" stroke="none" stroke-width="1" fill="none" fill-rule="evenodd">
        <g id="Topbar" transform="translate(-1359.000000, -30.000000)" fill="#9CAFC3">
            <g id="Logout" transform="translate(1359.000000, 30.000000)">
                <path d="M23.9618477,11.1946438 C23.9866219,11.1334303 24,11.0676637 24,10.9998735 C24,10.9325892 23.9866219,10.8668227 23.9618477,10.8056091 C23.9365779,10.7438897 23.9004076,10.6882411 23.8548229,10.6422044 L20.4325093,7.14797483 C20.2387747,6.95067506 19.9256283,6.95067506 19.7318938,7.14797483 C19.5381592,7.3457805 19.5381592,7.66601322 19.7318938,7.86331299 L22.3084148,10.4939767 L11.270995,10.4939767 C10.9969919,10.4939767 10.7755102,10.7206185 10.7755102,10.9998735 C10.7755102,11.2796345 10.9969919,11.5057704 11.270995,11.5057704 L22.3084148,11.5057704 L19.7318938,14.1364341 C19.5381592,14.3342397 19.5381592,14.6544724 19.7318938,14.8517722 C19.8285133,14.950928 19.9553574,15 20.0822015,15 C20.2090457,15 20.3358898,14.950928 20.4325093,14.8517722 L23.8548229,11.3580485 C23.9004076,11.311506 23.9365779,11.2563632 23.9618477,11.1946438" id="Fill-843"></path>
                <path d="M7.34693878,23 L0.979591837,19 L0.979591837,1.5 L7.34693878,5.29350637 L7.34693878,22 L7.34693878,23 Z M15.6643089,13.6328943 L15.6643089,16.4922619 C15.6643088,17.601105 14.7603401,18.5 13.6693022,18.5 L8.29217124,18.5 L8.29217124,5 C8.29217124,4.81903238 7.95451235,4.58897575 7.79977261,4.5 L2.41898259,1.00537568 L13.6670086,1.00537568 C14.7700871,1.00537568 15.6643089,1.90389952 15.6643089,3.0062324 L15.6643089,7.9877098 C15.6643089,8.26519348 15.885295,8.49039764 16.1586851,8.49039764 C16.4315807,8.49039764 16.6530612,8.26519348 16.6530612,7.9877098 L16.6530612,1.00537562 C16.6530612,0.727891935 15.9372042,0 15.6643085,0 L0.494376168,0 C0.220986147,0 -1.39933416e-14,0.225204153 -1.39933416e-14,0.502687841 L-3.0420928e-09,19.0026875 C-3.0420928e-09,19.2359346 0.282288804,19.9431963 0.49437618,20 L7.34693877,23.9343224 C7.42257833,23.9775535 7.71375113,24.0026878 7.79779508,24.0026878 C7.88381653,24.0026878 7.96934361,23.9795642 8.04646629,23.9343223 C8.19823977,23.8443412 8.29217124,23.6789569 8.29217124,23.5 L8.29217124,19.5053749 L15.6643085,19.5053749 C15.9372042,19.5053749 16.6530612,18.7779864 16.6530612,18.5 L16.6530612,13.6328943 C16.6530612,13.3554106 16.4315807,13.1302064 16.1586851,13.1302064 C15.885295,13.1302064 15.6643089,13.3554106 15.6643089,13.6328943 Z" id="Fill-844"></path>
            </g>
        </g>
    </g>
</svg>