<?xml version="1.0" encoding="UTF-8"?>
<svg width="24px" height="24px" viewBox="0 0 24 24" version="1.1" xmlns="http://www.w3.org/2000/svg" xmlns:xlink="http://www.w3.org/1999/xlink">
    <!-- Generator: Sketch 42 (36781) - http://www.bohemiancoding.com/sketch -->
    <title>Settings</title>
    <desc>Created with Sketch.</desc>
    <defs></defs>
    <g id="Symbols" stroke="none" stroke-width="1" fill="none" fill-rule="evenodd">
        <g id="Topbar" transform="translate(-1319.000000, -28.000000)" fill="#9CAFC3">
            <g id="Settings" transform="translate(1319.000000, 28.000000)">
                <path d="M11.9997596,15.6734694 C9.97446008,15.6734694 8.32653061,14.0254321 8.32653061,12 C8.32653061,9.97408716 9.97446008,8.32653061 11.9997596,8.32653061 C14.0250592,8.32653061 15.6734694,9.97408716 15.6734694,12 C15.6734694,14.0254321 14.0250592,15.6734694 11.9997596,15.6734694 L11.9997596,15.6734694 Z M11.9997587,7.34693878 C9.43421667,7.34693878 7.34693878,9.43432492 7.34693878,12 C7.34693878,14.5656751 9.43421667,16.6530612 11.9997587,16.6530612 C14.5653007,16.6530612 16.6530612,14.5656751 16.6530612,12 C16.6530612,9.43432492 14.5653007,7.34693878 11.9997587,7.34693878 L11.9997587,7.34693878 Z" id="Fill-1016"></path>
                <path d="M22.9587093,13.1510397 L20.2192788,13.5093246 C20.0164128,13.5359739 19.8510598,13.684519 19.8031815,13.8834017 C19.608213,14.6952181 19.2873788,15.4685411 18.8500571,16.1831369 C18.7434414,16.3573443 18.7552876,16.5794218 18.8796725,16.7412915 L20.5647925,18.9334426 C20.0805797,19.5310776 19.5351615,20.0768946 18.9374227,20.5615169 L16.7458783,18.8771829 C16.5839804,18.7528196 16.3613708,18.7409754 16.1871332,18.8480661 C15.4724133,19.2858054 14.6979689,19.6070774 13.8855179,19.8029991 C13.6870943,19.8508691 13.5385234,20.0161934 13.5118695,20.2190241 L13.1530288,22.9584727 C12.3751292,23.0408881 11.6293131,23.0408881 10.8514135,22.9594597 L10.4930664,20.2209982 C10.4664125,20.0181674 10.3178416,19.8528431 10.1189244,19.8054666 C9.30548626,19.6100385 8.53005467,19.2887665 7.813854,18.8505336 C7.63961635,18.74443 7.41750036,18.7557806 7.25560249,18.880144 L5.06307089,20.5649714 C4.79801247,20.3493096 4.54035793,20.1193361 4.29504316,19.8804794 L4.12031191,19.705285 C3.87993305,19.4595193 3.6504132,19.2028965 3.43570108,18.9383776 L5.12032745,16.7472136 C5.24471241,16.5853438 5.25655859,16.3632664 5.14944933,16.1885655 C4.71015326,15.4724891 4.38833187,14.6966986 4.19237621,13.8824147 C4.14449788,13.683532 3.97914486,13.5349869 3.77677252,13.5083376 L1.03734199,13.1500527 C1.0037778,12.8238456 0.984527748,12.494184 0.979591837,12.1684704 L0.979591837,11.8393023 C0.984527748,11.5081602 1.0037778,11.177018 1.03783558,10.849824 L3.77677252,10.491539 C3.97914486,10.4648897 4.14449788,10.3163446 4.19237621,10.1174619 C4.38833187,9.30367151 4.71015326,8.527881 5.14944933,7.81131115 C5.25655859,7.63710374 5.24471241,7.4150263 5.12032745,7.25266303 L3.43570108,5.06149901 C3.6504132,4.79747361 3.87894587,4.54183781 4.11685678,4.29853964 L4.29158802,4.12383873 C4.53937074,3.88152757 4.79801247,3.65106055 5.06307089,3.43539868 L7.25560249,5.11973265 C7.41750036,5.24409601 7.63912276,5.25594014 7.813854,5.14934297 C8.53005467,4.71111017 9.30548626,4.38983815 10.1189244,4.19490351 C10.3178416,4.14752699 10.4664125,3.98170917 10.4930664,3.77937195 L10.8514135,1.04091044 C11.6293131,0.95898854 12.3751292,0.95898854 13.1530288,1.04189745 L13.5118695,3.78134598 C13.5385234,3.98368319 13.6870943,4.14900751 13.8855179,4.19687753 C14.6979689,4.39279918 15.4724133,4.7140712 16.1871332,5.152304 C16.3608772,5.25890117 16.5829932,5.24755055 16.7458783,5.12269368 L18.9374227,3.43885322 C19.5351615,3.92347553 20.0805797,4.46929252 20.5647925,5.06643406 L18.8796725,7.25858509 C18.7552876,7.42045486 18.7434414,7.6430258 18.8500571,7.81723321 C19.2873788,8.53133554 19.608213,9.30515202 19.8031815,10.1164749 C19.8510598,10.3153576 20.0164128,10.4639027 20.2192788,10.490552 L22.9587093,10.8488369 C22.9996773,11.2382127 23.0204082,11.6241339 23.0204082,12.0001851 C23.0204082,12.3762362 22.9996773,12.7621574 22.9587093,13.1510397 L22.9587093,13.1510397 Z M23.8840794,10.3420469 C23.8534961,10.1220755 23.6798619,9.94945226 23.4593661,9.92035291 L20.6713528,9.5558712 C20.4794673,8.87425589 20.2076705,8.21828747 19.8599087,7.59881653 L21.5750401,5.36803068 C21.7101985,5.19244815 21.7111851,4.94732311 21.5775065,4.77026096 C20.9076335,3.88495019 20.1188803,3.09581524 19.2334443,2.42603695 C19.0563571,2.29188401 18.8116907,2.29237722 18.6355901,2.42800979 L16.4049821,4.14191225 C15.7854236,3.79370646 15.1288692,3.52096169 14.4461709,3.32861005 L14.0811444,0.540497637 C14.0520409,0.320526271 13.8798865,0.146916582 13.6598841,0.116337603 C12.5411271,-0.038036921 11.4633124,-0.0390233397 10.345542,0.114857975 C10.1255395,0.145436954 9.95239857,0.319046643 9.92378838,0.539511219 L9.55876187,3.326144 C8.87507707,3.51800244 8.21704279,3.79025399 7.59600444,4.138953 L5.36539647,2.42455732 C5.18880257,2.28941796 4.94462942,2.28843155 4.76704896,2.42209128 C4.36502651,2.72640144 3.97434949,3.06277021 3.60241707,3.42675871 L3.42089037,3.60875296 C3.06227648,3.97471429 2.72684671,4.36336325 2.42348008,4.76434244 C2.28930818,4.94189781 2.29029473,5.18652964 2.4254532,5.36260538 L4.13959798,7.59240481 C3.79035639,8.21384858 3.51707979,8.87228306 3.32420767,9.55685762 L0.536687631,9.92183254 C0.316191886,9.95043868 0.142557652,10.1235552 0.111974349,10.3435265 C0.0448883956,10.8288445 0.00739918609,11.3274792 0,11.8315391 L0,12.1748128 C0.00739918609,12.6719678 0.0448883956,13.1701093 0.111974349,13.6559205 C0.142557652,13.8758918 0.316191886,14.0485151 0.536687631,14.0776145 L3.32420767,14.4420962 C3.51707979,15.1271639 3.79035639,15.7855984 4.13959798,16.406549 L2.4254532,18.6363484 C2.29029473,18.8124241 2.28930818,19.0575492 2.42348008,19.2346113 C2.72684671,19.6355905 3.06227648,20.0247327 3.42434332,20.3936533 L3.6063633,20.5761407 C3.97434949,20.9361836 4.36502651,21.2730455 4.76704896,21.5768625 C4.94413615,21.7105222 5.18880257,21.7095358 5.36539647,21.5743965 L7.59600444,19.8600008 C8.21704279,20.2086998 8.87507707,20.4814446 9.55876187,20.673303 L9.92378838,23.4599358 C9.95239857,23.6799071 10.1255395,23.85401 10.345542,23.8840958 C10.9029473,23.9610365 11.4588729,24 11.9980269,24 C12.5401406,24 13.0990258,23.9605433 13.6598841,23.8831094 C13.8798865,23.8525304 14.0520409,23.6784275 14.0811444,23.4584561 L14.4461709,20.6703437 C15.1288692,20.4784853 15.7854236,20.2057405 16.4049821,19.8575347 L18.6355901,21.5714372 C18.8116907,21.7065766 19.0563571,21.707563 19.2334443,21.57341 C20.1188803,20.9036317 20.9076335,20.1144968 21.5775065,19.229186 C21.7111851,19.0521239 21.7101985,18.8069988 21.5750401,18.6309231 L19.8599087,16.4001372 C20.2076705,15.7811595 20.4794673,15.1251911 20.6713528,14.4430826 L23.4593661,14.0786009 C23.6798619,14.0499947 23.8534961,13.8768783 23.8840794,13.6569069 C23.961031,13.0976075 24,12.5397877 24,11.9997235 C24,11.4596593 23.961031,10.9018395 23.8840794,10.3420469 L23.8840794,10.3420469 Z" id="Fill-1017"></path>
            </g>
        </g>
    </g>
</svg>